<?xml version="1.0" standalone="no"?>
<!DOCTYPE svg PUBLIC "-//W3C//DTD SVG 20010904//EN"
 "http://www.w3.org/TR/2001/REC-SVG-20010904/DTD/svg10.dtd">
<svg version="1.0" xmlns="http://www.w3.org/2000/svg"
 width="638.000000pt" height="288.000000pt" viewBox="0 0 638.000000 288.000000"
 preserveAspectRatio="xMidYMid meet">
<metadata>
Created by potrace 1.16, written by Peter Selinger 2001-2019
</metadata>
<g transform="translate(0.000000,288.000000) scale(0.100000,-0.100000)"
fill="#ff3300" stroke="none">
<path d="M1106 2869 c-58 -14 -173 -78 -203 -113 -14 -17 -48 -78 -76 -136
-27 -58 -76 -160 -108 -228 -33 -67 -59 -124 -59 -127 0 -2 -29 -65 -65 -140
-36 -74 -65 -137 -65 -140 0 -2 -16 -37 -35 -76 -60 -124 -41 -209 53 -237 27
-8 162 -12 441 -12 286 0 401 -3 401 -11 0 -12 -60 -144 -135 -294 l-50 -100
-440 -5 -440 -5 -60 -29 c-33 -17 -80 -50 -105 -75 -52 -52 -96 -147 -86 -185
10 -41 54 -85 92 -92 19 -3 34 -10 34 -15 0 -5 243 -9 570 -8 314 0 570 4 570
8 0 5 17 11 38 15 43 7 121 46 175 89 39 31 79 106 227 427 29 63 79 170 111
237 33 68 59 125 59 128 0 3 16 38 35 78 39 80 46 147 19 185 -8 12 -35 31
-59 42 -42 19 -65 20 -449 20 -272 0 -406 3 -406 10 0 6 25 63 56 128 30 64
65 140 77 167 11 28 29 62 39 78 l19 27 422 0 c370 0 427 2 467 17 111 41 207
132 229 216 18 72 -21 136 -97 156 -46 14 -1140 13 -1196 0z"/>
<path d="M2826 2769 c-30 -63 -92 -197 -139 -299 -80 -174 -123 -265 -212
-455 -67 -143 -112 -239 -140 -300 -15 -33 -49 -106 -76 -163 -27 -57 -49
-105 -49 -108 0 -2 -24 -54 -54 -116 -29 -62 -68 -144 -86 -183 -18 -38 -47
-101 -66 -140 -38 -80 -64 -144 -64 -155 0 -5 110 -9 244 -9 218 0 245 1 258
17 9 9 35 60 58 112 23 52 59 131 80 175 110 232 150 317 150 320 0 2 24 55
54 117 30 62 68 143 84 181 17 37 35 67 40 67 10 0 24 -175 42 -515 16 -310
18 -324 41 -372 23 -47 69 -83 106 -83 12 0 24 -4 27 -9 3 -5 79 -9 169 -9
l164 1 26 51 c14 28 42 87 62 131 21 44 59 126 86 183 27 56 49 105 49 107 0
3 24 55 54 117 29 62 65 138 79 168 14 30 50 107 80 170 30 63 80 171 111 240
31 69 61 133 67 143 6 10 37 78 71 150 71 156 107 234 159 343 59 125 99 215
99 225 0 15 -496 12 -507 -3 -5 -7 -20 -38 -33 -68 -12 -30 -47 -105 -76 -167
-30 -62 -54 -114 -54 -117 0 -4 -48 -105 -180 -381 -26 -55 -58 -125 -70 -155
-25 -58 -38 -80 -49 -80 -8 0 -23 195 -41 520 -6 102 -12 215 -15 252 -5 83
-41 160 -88 185 -26 14 -66 18 -219 21 l-188 4 -54 -113z"/>
<path d="M4960 2866 c-67 -19 -145 -62 -185 -102 -35 -34 -69 -101 -205 -394
-34 -74 -75 -162 -90 -195 -16 -33 -47 -100 -70 -150 -23 -49 -52 -112 -66
-139 -15 -33 -24 -67 -24 -99 0 -44 4 -54 34 -82 19 -18 49 -35 66 -39 18 -3
212 -6 431 -6 295 0 399 -3 399 -12 0 -6 -12 -36 -26 -67 -15 -31 -42 -90 -61
-131 -20 -41 -48 -103 -64 -137 l-30 -62 -442 -3 -442 -3 -59 -30 c-155 -79
-234 -238 -157 -316 16 -16 43 -32 60 -35 17 -4 31 -10 31 -14 0 -11 1117 -12
1138 -1 9 5 37 14 62 21 62 17 153 74 188 118 16 20 53 89 82 152 29 63 69
151 90 195 21 44 66 141 100 215 34 74 84 182 111 239 74 157 67 219 -28 261
-43 19 -65 20 -449 20 -235 0 -404 4 -404 9 0 10 74 170 143 311 l42 85 440 5
440 5 55 27 c80 39 132 88 169 158 26 49 32 68 27 95 -10 51 -48 91 -100 104
-66 16 -1145 14 -1206 -3z"/>
<path d="M586 411 c-20 -22 -96 -177 -96 -196 0 -19 24 -25 106 -25 41 0 74
-2 74 -5 0 -4 -7 -19 -15 -35 -15 -29 -18 -30 -90 -30 -103 0 -144 -18 -145
-62 0 -16 13 -18 143 -18 125 0 146 2 159 18 25 30 90 182 84 197 -4 12 -24
15 -91 15 -47 0 -85 2 -85 5 0 2 8 20 17 40 l17 35 86 0 c96 0 130 14 130 56
l0 24 -138 0 c-123 0 -141 -2 -156 -19z"/>
<path d="M942 414 c-15 -10 -22 -24 -20 -37 3 -19 11 -22 51 -25 26 -2 47 -5
47 -6 0 -2 -27 -62 -61 -132 -91 -192 -89 -174 -21 -174 l58 0 70 152 71 153
55 5 c62 6 90 23 86 54 -3 20 -9 21 -158 24 -130 2 -159 0 -178 -14z"/>
<path d="M1310 348 c-21 -46 -61 -132 -89 -192 -28 -60 -51 -110 -51 -112 0
-2 26 -4 58 -4 l57 0 82 178 c45 97 85 185 89 195 5 15 -1 17 -51 17 l-56 0
-39 -82z"/>
<path d="M1536 411 c-23 -25 -166 -330 -166 -353 0 -16 13 -18 143 -18 161 0
158 -1 191 77 22 50 16 63 -31 63 -26 0 -42 -8 -63 -30 -21 -23 -37 -30 -65
-30 -20 0 -35 4 -33 8 2 5 25 57 53 115 l49 107 37 0 c34 0 38 -3 41 -27 2
-22 9 -29 31 -31 52 -6 107 55 107 118 0 19 -6 20 -138 20 -125 0 -141 -2
-156 -19z"/>
<path d="M1823 252 c-45 -97 -85 -185 -88 -194 -6 -16 0 -18 49 -18 l57 0 34
75 c32 69 37 75 65 75 35 0 35 3 11 -83 l-18 -67 58 0 58 0 16 58 c9 31 18 65
21 74 3 9 -3 21 -13 26 -14 9 -15 14 -5 36 6 14 22 28 36 32 22 5 38 24 110
137 l18 27 -59 0 -60 0 -51 -80 c-46 -71 -54 -80 -82 -80 -16 0 -30 2 -30 5 0
3 16 37 35 75 19 38 35 72 35 75 0 3 -26 5 -57 5 l-58 0 -82 -178z"/>
<path d="M2295 418 c-23 -61 -65 -194 -65 -205 0 -7 14 -16 30 -20 l30 -8 -34
-73 -35 -72 57 0 58 0 37 75 c30 61 41 75 60 75 37 0 63 26 122 121 78 126 77
119 12 119 l-56 0 -48 -80 c-41 -69 -52 -80 -75 -80 -16 0 -28 1 -28 3 0 2 11
37 25 77 14 40 25 75 25 77 0 2 -25 3 -55 3 -35 0 -57 -5 -60 -12z"/>
<path d="M2973 252 c-45 -97 -85 -185 -88 -194 -6 -16 0 -18 49 -18 l57 0 37
78 37 77 2 -45 c2 -25 6 -60 9 -78 l5 -33 55 3 54 3 66 140 c36 77 77 164 89
193 l24 52 -58 0 -59 0 -33 -75 c-18 -41 -36 -75 -41 -75 -4 0 -8 28 -8 63 0
36 -5 68 -12 75 -7 7 -32 12 -57 12 l-46 0 -82 -178z"/>
<path d="M3796 411 c-20 -22 -96 -177 -96 -196 0 -19 24 -25 106 -25 41 0 74
-2 74 -5 0 -4 -7 -19 -15 -35 -15 -29 -18 -30 -90 -30 -103 0 -144 -18 -145
-62 0 -16 13 -18 143 -18 125 0 146 2 159 18 25 30 90 182 84 197 -4 12 -24
15 -91 15 -47 0 -85 2 -85 5 0 2 8 20 17 40 l17 35 86 0 c96 0 130 14 130 56
l0 24 -138 0 c-123 0 -141 -2 -156 -19z"/>
<path d="M4162 414 c-15 -10 -22 -24 -20 -37 3 -19 11 -22 51 -25 26 -2 47 -5
47 -6 0 -2 -27 -62 -61 -132 -91 -192 -89 -174 -21 -174 l58 0 70 152 71 153
55 5 c62 6 90 23 86 54 -3 20 -9 21 -158 24 -130 2 -159 0 -178 -14z"/>
<path d="M4483 252 c-45 -97 -85 -185 -88 -194 -6 -16 0 -18 49 -18 l57 0 34
75 34 75 41 0 c22 0 40 -2 40 -5 0 -3 -16 -37 -35 -75 l-35 -70 59 0 59 0 35
73 c30 62 33 74 20 84 -23 18 -12 46 24 63 23 11 39 30 58 71 45 101 48 99
-122 99 l-148 0 -82 -178z"/>
<path d="M4936 411 c-23 -25 -166 -330 -166 -353 0 -16 13 -18 144 -18 116 0
146 3 156 15 23 28 160 329 160 353 0 22 -2 22 -138 22 -125 0 -141 -2 -156
-19z m154 -70 c0 -4 -23 -56 -50 -115 l-50 -106 -41 0 c-22 0 -39 4 -37 8 2 5
25 57 53 115 l49 107 38 0 c21 0 38 -4 38 -9z"/>
<path d="M5233 252 c-45 -97 -85 -185 -88 -194 -6 -16 0 -18 49 -18 l57 0 37
78 37 77 2 -45 c2 -25 6 -60 9 -78 l5 -33 55 3 54 3 66 140 c36 77 77 164 89
193 l24 52 -58 0 -59 0 -33 -75 c-18 -41 -36 -75 -41 -75 -4 0 -8 28 -8 63 0
36 -5 68 -12 75 -7 7 -32 12 -57 12 l-46 0 -82 -178z"/>
<path d="M5696 411 c-23 -25 -166 -330 -166 -354 0 -16 12 -17 148 -15 l147 3
49 97 c28 55 46 103 43 112 -9 23 -79 21 -100 -1 -8 -10 -27 -44 -41 -75 -25
-57 -26 -58 -66 -58 -23 0 -40 4 -38 8 2 5 25 57 53 115 l49 107 86 0 c96 0
130 14 130 56 l0 24 -138 0 c-125 0 -141 -2 -156 -19z"/>
<path d="M140 250 c-38 -38 -22 -45 118 -48 144 -3 175 5 170 41 -3 21 -8 22
-135 25 -123 2 -134 1 -153 -18z"/>
<path d="M6000 250 c-38 -38 -22 -45 118 -48 144 -3 175 5 170 41 -3 21 -8 22
-135 25 -123 2 -134 1 -153 -18z"/>
</g>
</svg>
