<?xml version="1.0" standalone="no"?>
<!DOCTYPE svg PUBLIC "-//W3C//DTD SVG 20010904//EN"
 "http://www.w3.org/TR/2001/REC-SVG-20010904/DTD/svg10.dtd">
<svg version="1.0" xmlns="http://www.w3.org/2000/svg"
 width="140.000000pt" height="140.000000pt" viewBox="0 0 140.000000 140.000000"
 preserveAspectRatio="xMidYMid meet">
<metadata>
Created by potrace 1.14, written by Peter Selinger 2001-2017
</metadata>
<g transform="translate(0.000000,140.000000) scale(0.100000,-0.100000)"
fill="#000000" stroke="none">
<path d="M549 1366 c-6 -81 2 -153 22 -202 7 -16 13 -34 15 -41 4 -23 76 -123
120 -168 25 -25 71 -64 102 -87 60 -44 274 -158 298 -158 8 0 14 -4 14 -10 0
-5 -5 -10 -12 -10 -21 0 -212 -102 -285 -152 -177 -122 -281 -279 -285 -428
-3 -95 6 -104 75 -80 306 108 526 295 598 508 31 91 35 226 9 310 -56 187
-221 358 -439 454 -36 16 -75 33 -86 38 -35 16 -79 32 -112 40 -29 7 -33 5
-34 -14z"/>
</g>
</svg>
